<svg width="202" height="40" viewBox="0 0 202 40" fill="none" xmlns="http://www.w3.org/2000/svg">
<g id="logo-87">
<path id="Vector" fill-rule="evenodd" clip-rule="evenodd" d="M25.5557 11.6853C23.9112 10.5865 21.9778 10 20 10V0C23.9556 0 27.8224 1.17298 31.1114 3.37061C34.4004 5.56823 36.9638 8.69181 38.4776 12.3463C39.9913 16.0008 40.3874 20.0222 39.6157 23.9018C38.844 27.7814 36.9392 31.3451 34.1421 34.1421C31.3451 36.9392 27.7814 38.844 23.9018 39.6157C20.0222 40.3874 16.0008 39.9913 12.3463 38.4776C8.6918 36.9638 5.56823 34.4004 3.37061 31.1114C1.17298 27.8224 0 23.9556 0 20H10C10 21.9778 10.5865 23.9112 11.6853 25.5557C12.7841 27.2002 14.3459 28.4819 16.1732 29.2388C18.0004 29.9957 20.0111 30.1937 21.9509 29.8078C23.8907 29.422 25.6725 28.4696 27.0711 27.0711C28.4696 25.6725 29.422 23.8907 29.8078 21.9509C30.1937 20.0111 29.9957 18.0004 29.2388 16.1732C28.4819 14.3459 27.2002 12.7841 25.5557 11.6853Z" fill="white"/>
<path id="Vector_2" fill-rule="evenodd" clip-rule="evenodd" d="M9.99999 5.28493e-06C9.99999 1.31322 9.74134 2.61358 9.23879 3.82684C8.73624 5.04009 7.99965 6.14248 7.07106 7.07107C6.14248 7.99966 5.04009 8.73625 3.82683 9.2388C2.61357 9.74134 1.31321 10 4.3711e-07 10L0 20C2.62643 20 5.22715 19.4827 7.65367 18.4776C10.0802 17.4725 12.285 15.9993 14.1421 14.1421C15.9993 12.285 17.4725 10.0802 18.4776 7.65367C19.4827 5.22715 20 2.62643 20 0L9.99999 5.28493e-06Z" fill="white"/>
<g id="POPCORN">
<path d="M56.5164 29.04H52.3164V10.28H60.9404C64.9724 10.28 67.8564 12.716 67.8564 16.888C67.8564 21.088 64.9724 23.468 60.9404 23.468H56.5164V29.04ZM61.1084 14.06H56.5164V19.716H61.1084C63.0404 19.716 63.6844 19.128 63.6844 16.888C63.6844 14.62 63.0404 14.06 61.1084 14.06Z" fill="white"/>
<path d="M78.2483 29.32C72.6483 29.32 69.2323 25.512 69.2323 19.66C69.2323 13.808 72.6483 10 78.2483 10C83.8483 10 87.2363 13.808 87.2363 19.66C87.2363 25.512 83.8483 29.32 78.2483 29.32ZM78.2483 25.26C81.4683 25.26 82.7563 24.056 82.7563 19.66C82.7563 15.264 81.4683 14.06 78.2483 14.06C75.0283 14.06 73.7123 15.264 73.7123 19.66C73.7123 24.056 75.0283 25.26 78.2483 25.26Z" fill="white"/>
<path d="M93.4578 29.04H89.2578V10.28H97.8818C101.914 10.28 104.798 12.716 104.798 16.888C104.798 21.088 101.914 23.468 97.8818 23.468H93.4578V29.04ZM98.0498 14.06H93.4578V19.716H98.0498C99.9818 19.716 100.626 19.128 100.626 16.888C100.626 14.62 99.9818 14.06 98.0498 14.06Z" fill="white"/>
<path d="M115.162 29.32C109.534 29.32 106.174 25.512 106.174 19.66C106.174 13.808 109.534 10 115.162 10C120.706 10 123.702 12.912 123.702 17.56V17.812H119.222V17.672C119.222 14.984 118.102 14.06 115.134 14.06C111.97 14.06 110.654 15.208 110.654 19.66C110.654 24.112 111.97 25.26 115.134 25.26C118.102 25.26 119.222 24.336 119.222 21.648V21.508H123.702V21.76C123.702 26.408 120.706 29.32 115.162 29.32Z" fill="white"/>
<path d="M134.522 29.32C128.922 29.32 125.506 25.512 125.506 19.66C125.506 13.808 128.922 10 134.522 10C140.122 10 143.51 13.808 143.51 19.66C143.51 25.512 140.122 29.32 134.522 29.32ZM134.522 25.26C137.742 25.26 139.03 24.056 139.03 19.66C139.03 15.264 137.742 14.06 134.522 14.06C131.302 14.06 129.986 15.264 129.986 19.66C129.986 24.056 131.302 25.26 134.522 25.26Z" fill="white"/>
<path d="M149.731 29.04H145.531V10.28H154.155C158.635 10.28 161.127 12.352 161.127 15.992C161.127 19.044 159.615 20.864 156.395 21.144V21.424C158.019 21.928 158.803 22.908 159.531 24.336L161.911 29.04H157.011L154.799 24.7C153.959 23.076 153.399 22.376 151.411 22.376H149.731V29.04ZM149.731 14.06V18.904H154.351C156.311 18.904 156.955 18.316 156.955 16.468C156.955 14.676 156.311 14.06 154.351 14.06H149.731Z" fill="white"/>
<path d="M167.313 29.04H163.113V10.28H167.593L173.669 19.688L175.237 22.208H175.517L175.461 19.688V10.28H179.661V29.04H175.181L169.357 20.164L167.537 17.28H167.257L167.313 20.164V29.04Z" fill="white"/>
</g>
</g>
</svg>
